{"title":"Allegiant (2016) BRRIP 1080P NO CINAVIA 6CH","uid":15792227,"size":4049098107,"categoryP":"video","categoryS":"hd___movies","magnet":"?xt=urn:btih:f2dc1a31933f8985c45aea20993565e51b440695&amp;dn=Allegiant+%282016%29+BRRIP+1080P+NO+CINAVIA+6CH&amp;tr=udp%3A%2F%2Ftracker.leechers-paradise.org%3A6969&amp;tr=udp%3A%2F%2Fzer0day.ch%3A1337&amp;tr=udp%3A%2F%2Fopen.demonii.com%3A1337&amp;tr=udp%3A%2F%2Ftracker.coppersurfer.tk%3A6969&amp;tr=udp%3A%2F%2Fexodus.desync.com%3A6969","seeders":3,"leechers":2,"uploader":"jmanwf","files":5,"time":1473393934,"description":"Storyline\r\n\r\nAfter the earth-shattering revelations of INSURGENT, Tris must escape with Four and go beyond the wall enclosing Chicago. For the first time ever, they will leave the only city and family they have ever known. Once outside, old discoveries are quickly rendered meaningless with the revelation of shocking new truths. Tris and Four must quickly decide who they can trust as a ruthless battle ignites beyond the walls of Chicago which threatens all of humanity. In order to survive, Tris will be forced to make impossible choices about courage, allegiance,\r\n\r\n\r\nVideo\r\nID : 1\r\nFormat : AVC\r\nFormat/Info : Advanced Video Codec\r\nFormat profile :   \r\nFormat settings, CABAC : Yes\r\nFormat settings, ReFrames : 3 frames\r\nFormat settings, GOP : M=4, N=24\r\nCodec ID : V_MPEG4/ISO/AVC\r\nDuration : 2 h 0 min\r\nBit rate mode : Variable\r\nBit rate : 3 594 kb/s\r\nMaximum bit rate : 30.0 Mb/s\r\nWidth : 1 920 pixels\r\nHeight : 1 080 pixels\r\nDisplay aspect ratio : 16:9\r\nFrame rate mode : Constant\r\nFrame rate : 23.976 (24000/1001) FPS\r\nColor space : YUV\r\nChroma subsampling : 4:2:0\r\nBit depth : 8 bits\r\nScan type : Progressive\r\nBits/(Pixel*Frame) : 0.072\r\nStream size : 3.03 GiB (81%)\r\nLanguage : English\r\nDefault : Yes\r\nForced : No\r\nColor range : Limited\r\nColor primaries : BT.709\r\nTransfer characteristics : BT.709\r\nMatrix coefficients : BT.709\r\n\r\nAudio #1\r\nID : 2\r\nFormat : AC-3\r\nFormat/Info : Audio Coding 3\r\nMode extension : CM (complete main)\r\nFormat settings, Endianness : Big\r\nCodec ID : A_AC3\r\nDuration : 2 h 0 min\r\nBit rate mode : Constant\r\nBit rate : 640 kb/s\r\nChannel(s) : 6 channels\r\nChannel positions : Front: L C R, Side: L R, LFE\r\nSampling rate : 48.0 kHz\r\nFrame rate : 31.250 FPS (1536 spf)\r\nCompression mode : Lossy\r\nStream size : 552 MiB (14%)\r\nLanguage : English\r\nDefault : Yes\r\nForced : No\r\n\r\nAudio #2\r\nID : 3\r\nFormat : AC-3\r\nFormat/Info : Audio Coding 3\r\nMode extension : CM (complete main)\r\nFormat settings, Endianness : Big\r\nCodec ID : A_AC3\r\nDuration : 2 h 0 min\r\nBit rate mode : Constant\r\nBit rate : 224 kb/s\r\nChannel(s) : 2 channels\r\nChannel positions : Front: L R\r\nSampling rate : 48.0 kHz\r\nFrame rate : 31.250 FPS (1536 spf)\r\nCompression mode : Lossy\r\nStream size : 193 MiB (5%)\r\nLanguage : English\r\nDefault : No\r\nForced : No\r\n\r\n\r\n \nhttps://s13.postimg.org/usibtpzw7/image.jpg\r\n\r\n\r\n\r\n\r\n \nhttps://s13.postimg.org/pidd2ffnb/image.jpg","torrent":{"xt":"urn:btih:f2dc1a31933f8985c45aea20993565e51b440695","amp;dn":"Allegiant+%282016%29+BRRIP+1080P+NO+CINAVIA+6CH","amp;tr":["udp%3A%2F%2Ftracker.leechers-paradise.org%3A6969","udp%3A%2F%2Fzer0day.ch%3A1337","udp%3A%2F%2Fopen.demonii.com%3A1337","udp%3A%2F%2Ftracker.coppersurfer.tk%3A6969","udp%3A%2F%2Fexodus.desync.com%3A6969"],"infoHash":"f2dc1a31933f8985c45aea20993565e51b440695","infoHashBuffer":{"type":"Buffer","data":[242,220,26,49,147,63,137,133,196,90,234,32,153,53,101,229,27,68,6,149]},"announce":[],"urlList":[]}}